<svg fill="#000000" width="800px" height="800px" viewBox="0 0 24 24" role="img" xmlns="http://www.w3.org/2000/svg" aria-labelledby="creditCardIconTitle" stroke="#000000" stroke-width="1" stroke-linecap="square" stroke-linejoin="miter"><title id="creditCardIconTitle">Credit Card</title><path d="M20,9 L20,7 C20,5.8954305 19.1045695,5 18,5 L6,5 C4.8954305,5 4,5.8954305 4,7 L4,9 L20,9 Z"/><path d="M4,11 L4,17 C4,18.1045695 4.8954305,19 6,19 L18,19 C19.1045695,19 20,18.1045695 20,17 L20,11 L4,11 Z M8,16 L6,16 L6,15 L8,15 L8,16 Z M12,16 L10,16 L10,15 L12,15 L12,16 Z"/></svg> 