<svg fill="#000000" width="800px" height="800px" viewBox="0 0 24 24" id="grocery-bag" data-name="Flat Line" xmlns="http://www.w3.org/2000/svg" class="icon flat-line"><path id="secondary" d="M15.23,16H8.77A2.78,2.78,0,0,1,6,13.22L5,7H19L18,13.22A2.78,2.78,0,0,1,15.23,16Z" style="fill: #2ca9bc; stroke-width: 2;"></path><path id="primary" d="M10,7V6a2,2,0,0,1,2-2h0a2,2,0,0,1,2,2V7m3,9H19L18,7H6l-1,6.22A2.78,2.78,0,0,0,7.77,16h8.46A2.78,2.78,0,0,0,19,13.22L18,7" style="fill: none; stroke: #000000; stroke-linecap: round; stroke-linejoin: round; stroke-width: 2;"></path></svg> 